<svg id="visual" viewBox="0 0 960 300" width="960" height="300" xmlns="http://www.w3.org/2000/svg" xmlns:xlink="http://www.w3.org/1999/xlink" version="1.1"><rect x="0" y="0" width="960" height="300" fill="#16161A"></rect><path d="M0 126L13.3 135.3C26.7 144.7 53.3 163.3 80 162.8C106.7 162.3 133.3 142.7 160 132.5C186.7 122.3 213.3 121.7 240 131.2C266.7 140.7 293.3 160.3 320 161.2C346.7 162 373.3 144 400 129C426.7 114 453.3 102 480 98.7C506.7 95.3 533.3 100.7 560 109.7C586.7 118.7 613.3 131.3 640 129.5C666.7 127.7 693.3 111.3 720 107.8C746.7 104.3 773.3 113.7 800 129.7C826.7 145.7 853.3 168.3 880 163.3C906.7 158.3 933.3 125.7 946.7 109.3L960 93L960 301L946.7 301C933.3 301 906.7 301 880 301C853.3 301 826.7 301 800 301C773.3 301 746.7 301 720 301C693.3 301 666.7 301 640 301C613.3 301 586.7 301 560 301C533.3 301 506.7 301 480 301C453.3 301 426.7 301 400 301C373.3 301 346.7 301 320 301C293.3 301 266.7 301 240 301C213.3 301 186.7 301 160 301C133.3 301 106.7 301 80 301C53.3 301 26.7 301 13.3 301L0 301Z" fill="#d9376e"></path><path d="M0 172L13.3 175.8C26.7 179.7 53.3 187.3 80 190C106.7 192.7 133.3 190.3 160 178.8C186.7 167.3 213.3 146.7 240 152.5C266.7 158.3 293.3 190.7 320 202.3C346.7 214 373.3 205 400 195.3C426.7 185.7 453.3 175.3 480 172C506.7 168.7 533.3 172.3 560 175.3C586.7 178.3 613.3 180.7 640 184.3C666.7 188 693.3 193 720 187.2C746.7 181.3 773.3 164.7 800 155.3C826.7 146 853.3 144 880 145.7C906.7 147.3 933.3 152.7 946.7 155.3L960 158L960 301L946.7 301C933.3 301 906.7 301 880 301C853.3 301 826.7 301 800 301C773.3 301 746.7 301 720 301C693.3 301 666.7 301 640 301C613.3 301 586.7 301 560 301C533.3 301 506.7 301 480 301C453.3 301 426.7 301 400 301C373.3 301 346.7 301 320 301C293.3 301 266.7 301 240 301C213.3 301 186.7 301 160 301C133.3 301 106.7 301 80 301C53.3 301 26.7 301 13.3 301L0 301Z" fill="#ed435d"></path><path d="M0 198L13.3 196C26.7 194 53.3 190 80 192C106.7 194 133.3 202 160 204C186.7 206 213.3 202 240 196.5C266.7 191 293.3 184 320 180.5C346.7 177 373.3 177 400 178.7C426.7 180.3 453.3 183.7 480 188.3C506.7 193 533.3 199 560 195.3C586.7 191.7 613.3 178.3 640 173.7C666.7 169 693.3 173 720 177.3C746.7 181.7 773.3 186.3 800 185.7C826.7 185 853.3 179 880 185.7C906.7 192.3 933.3 211.7 946.7 221.3L960 231L960 301L946.7 301C933.3 301 906.7 301 880 301C853.3 301 826.7 301 800 301C773.3 301 746.7 301 720 301C693.3 301 666.7 301 640 301C613.3 301 586.7 301 560 301C533.3 301 506.7 301 480 301C453.3 301 426.7 301 400 301C373.3 301 346.7 301 320 301C293.3 301 266.7 301 240 301C213.3 301 186.7 301 160 301C133.3 301 106.7 301 80 301C53.3 301 26.7 301 13.3 301L0 301Z" fill="#fa5749"></path><path d="M0 223L13.3 220.3C26.7 217.7 53.3 212.3 80 211.8C106.7 211.3 133.3 215.7 160 223C186.7 230.3 213.3 240.7 240 239.5C266.7 238.3 293.3 225.7 320 219C346.7 212.3 373.3 211.7 400 214C426.7 216.3 453.3 221.7 480 221.7C506.7 221.7 533.3 216.3 560 215.7C586.7 215 613.3 219 640 221.2C666.7 223.3 693.3 223.7 720 225.2C746.7 226.7 773.3 229.3 800 227.7C826.7 226 853.3 220 880 215.3C906.7 210.7 933.3 207.3 946.7 205.7L960 204L960 301L946.7 301C933.3 301 906.7 301 880 301C853.3 301 826.7 301 800 301C773.3 301 746.7 301 720 301C693.3 301 666.7 301 640 301C613.3 301 586.7 301 560 301C533.3 301 506.7 301 480 301C453.3 301 426.7 301 400 301C373.3 301 346.7 301 320 301C293.3 301 266.7 301 240 301C213.3 301 186.7 301 160 301C133.3 301 106.7 301 80 301C53.3 301 26.7 301 13.3 301L0 301Z" fill="#ff6f31"></path><path d="M0 266L13.3 261.7C26.7 257.3 53.3 248.7 80 242.8C106.7 237 133.3 234 160 237.7C186.7 241.3 213.3 251.7 240 256.8C266.7 262 293.3 262 320 257.8C346.7 253.7 373.3 245.3 400 243.8C426.7 242.3 453.3 247.7 480 252.8C506.7 258 533.3 263 560 261.2C586.7 259.3 613.3 250.7 640 245C666.7 239.3 693.3 236.7 720 239.2C746.7 241.7 773.3 249.3 800 253.3C826.7 257.3 853.3 257.7 880 253.8C906.7 250 933.3 242 946.7 238L960 234L960 301L946.7 301C933.3 301 906.7 301 880 301C853.3 301 826.7 301 800 301C773.3 301 746.7 301 720 301C693.3 301 666.7 301 640 301C613.3 301 586.7 301 560 301C533.3 301 506.7 301 480 301C453.3 301 426.7 301 400 301C373.3 301 346.7 301 320 301C293.3 301 266.7 301 240 301C213.3 301 186.7 301 160 301C133.3 301 106.7 301 80 301C53.3 301 26.7 301 13.3 301L0 301Z" fill="#ff8906"></path></svg>