<svg id="visual" viewBox="0 0 960 300" width="960" height="300" xmlns="http://www.w3.org/2000/svg" xmlns:xlink="http://www.w3.org/1999/xlink" version="1.1"><path d="M0 18L17.8 23.8C35.7 29.7 71.3 41.3 106.8 46.5C142.3 51.7 177.7 50.3 213.2 57.7C248.7 65 284.3 81 320 84.2C355.7 87.3 391.3 77.7 426.8 67.3C462.3 57 497.7 46 533.2 46.3C568.7 46.7 604.3 58.3 640 72.2C675.7 86 711.3 102 746.8 90.8C782.3 79.7 817.7 41.3 853.2 39.3C888.7 37.3 924.3 71.7 942.2 88.8L960 106L960 0L942.2 0C924.3 0 888.7 0 853.2 0C817.7 0 782.3 0 746.8 0C711.3 0 675.7 0 640 0C604.3 0 568.7 0 533.2 0C497.7 0 462.3 0 426.8 0C391.3 0 355.7 0 320 0C284.3 0 248.7 0 213.2 0C177.7 0 142.3 0 106.8 0C71.3 0 35.7 0 17.8 0L0 0Z" fill="#d9376e"></path><path d="M0 20L17.8 31.8C35.7 43.7 71.3 67.3 106.8 69.5C142.3 71.7 177.7 52.3 213.2 41.8C248.7 31.3 284.3 29.7 320 28.8C355.7 28 391.3 28 426.8 31.5C462.3 35 497.7 42 533.2 39.8C568.7 37.7 604.3 26.3 640 29.7C675.7 33 711.3 51 746.8 59.3C782.3 67.7 817.7 66.3 853.2 65.8C888.7 65.3 924.3 65.7 942.2 65.8L960 66L960 0L942.2 0C924.3 0 888.7 0 853.2 0C817.7 0 782.3 0 746.8 0C711.3 0 675.7 0 640 0C604.3 0 568.7 0 533.2 0C497.7 0 462.3 0 426.8 0C391.3 0 355.7 0 320 0C284.3 0 248.7 0 213.2 0C177.7 0 142.3 0 106.8 0C71.3 0 35.7 0 17.8 0L0 0Z" fill="#ed435d"></path><path d="M0 63L17.8 55.8C35.7 48.7 71.3 34.3 106.8 35.2C142.3 36 177.7 52 213.2 49.7C248.7 47.3 284.3 26.7 320 18.2C355.7 9.7 391.3 13.3 426.8 12.3C462.3 11.3 497.7 5.7 533.2 9.3C568.7 13 604.3 26 640 39.2C675.7 52.3 711.3 65.7 746.8 63.5C782.3 61.3 817.7 43.7 853.2 31.5C888.7 19.3 924.3 12.7 942.2 9.3L960 6L960 0L942.2 0C924.3 0 888.7 0 853.2 0C817.7 0 782.3 0 746.8 0C711.3 0 675.7 0 640 0C604.3 0 568.7 0 533.2 0C497.7 0 462.3 0 426.8 0C391.3 0 355.7 0 320 0C284.3 0 248.7 0 213.2 0C177.7 0 142.3 0 106.8 0C71.3 0 35.7 0 17.8 0L0 0Z" fill="#fa5749"></path><path d="M0 58L17.8 49.8C35.7 41.7 71.3 25.3 106.8 20.7C142.3 16 177.7 23 213.2 31.3C248.7 39.7 284.3 49.3 320 54C355.7 58.7 391.3 58.3 426.8 57C462.3 55.7 497.7 53.3 533.2 45.5C568.7 37.7 604.3 24.3 640 22.2C675.7 20 711.3 29 746.8 29.2C782.3 29.3 817.7 20.7 853.2 17.2C888.7 13.7 924.3 15.3 942.2 16.2L960 17L960 0L942.2 0C924.3 0 888.7 0 853.2 0C817.7 0 782.3 0 746.8 0C711.3 0 675.7 0 640 0C604.3 0 568.7 0 533.2 0C497.7 0 462.3 0 426.8 0C391.3 0 355.7 0 320 0C284.3 0 248.7 0 213.2 0C177.7 0 142.3 0 106.8 0C71.3 0 35.7 0 17.8 0L0 0Z" fill="#ff6f31"></path><path d="M0 33L17.8 28.8C35.7 24.7 71.3 16.3 106.8 13.8C142.3 11.3 177.7 14.7 213.2 18.8C248.7 23 284.3 28 320 30.2C355.7 32.3 391.3 31.7 426.8 31C462.3 30.3 497.7 29.7 533.2 30C568.7 30.3 604.3 31.7 640 29.2C675.7 26.7 711.3 20.3 746.8 18.5C782.3 16.7 817.7 19.3 853.2 20.2C888.7 21 924.3 20 942.2 19.5L960 19L960 0L942.2 0C924.3 0 888.7 0 853.2 0C817.7 0 782.3 0 746.8 0C711.3 0 675.7 0 640 0C604.3 0 568.7 0 533.2 0C497.7 0 462.3 0 426.8 0C391.3 0 355.7 0 320 0C284.3 0 248.7 0 213.2 0C177.7 0 142.3 0 106.8 0C71.3 0 35.7 0 17.8 0L0 0Z" fill="#ff8906"></path></svg>