<svg id="visual" viewBox="0 0 960 300" width="960" height="300" xmlns="http://www.w3.org/2000/svg" xmlns:xlink="http://www.w3.org/1999/xlink" version="1.1"><path d="M0 184L17.8 189.7C35.7 195.3 71.3 206.7 106.8 218.8C142.3 231 177.7 244 213.2 256C248.7 268 284.3 279 320 284.7C355.7 290.3 391.3 290.7 426.8 280.8C462.3 271 497.7 251 533.2 233C568.7 215 604.3 199 640 196.5C675.7 194 711.3 205 746.8 214.7C782.3 224.3 817.7 232.7 853.2 226.7C888.7 220.7 924.3 200.3 942.2 190.2L960 180L960 301L942.2 301C924.3 301 888.7 301 853.2 301C817.7 301 782.3 301 746.8 301C711.3 301 675.7 301 640 301C604.3 301 568.7 301 533.2 301C497.7 301 462.3 301 426.8 301C391.3 301 355.7 301 320 301C284.3 301 248.7 301 213.2 301C177.7 301 142.3 301 106.8 301C71.3 301 35.7 301 17.8 301L0 301Z" fill="#d9376e"></path><path d="M0 237L17.8 239.2C35.7 241.3 71.3 245.7 106.8 252C142.3 258.3 177.7 266.7 213.2 270.3C248.7 274 284.3 273 320 268.2C355.7 263.3 391.3 254.7 426.8 251.8C462.3 249 497.7 252 533.2 260.7C568.7 269.3 604.3 283.7 640 274.5C675.7 265.3 711.3 232.7 746.8 227.7C782.3 222.7 817.7 245.3 853.2 252.3C888.7 259.3 924.3 250.7 942.2 246.3L960 242L960 301L942.2 301C924.3 301 888.7 301 853.2 301C817.7 301 782.3 301 746.8 301C711.3 301 675.7 301 640 301C604.3 301 568.7 301 533.2 301C497.7 301 462.3 301 426.8 301C391.3 301 355.7 301 320 301C284.3 301 248.7 301 213.2 301C177.7 301 142.3 301 106.8 301C71.3 301 35.7 301 17.8 301L0 301Z" fill="#ed435d"></path><path d="M0 285L17.8 274.8C35.7 264.7 71.3 244.3 106.8 236.8C142.3 229.3 177.7 234.7 213.2 239.7C248.7 244.7 284.3 249.3 320 253.5C355.7 257.7 391.3 261.3 426.8 259C462.3 256.7 497.7 248.3 533.2 244.7C568.7 241 604.3 242 640 245.8C675.7 249.7 711.3 256.3 746.8 256.2C782.3 256 817.7 249 853.2 243.7C888.7 238.3 924.3 234.7 942.2 232.8L960 231L960 301L942.2 301C924.3 301 888.7 301 853.2 301C817.7 301 782.3 301 746.8 301C711.3 301 675.7 301 640 301C604.3 301 568.7 301 533.2 301C497.7 301 462.3 301 426.8 301C391.3 301 355.7 301 320 301C284.3 301 248.7 301 213.2 301C177.7 301 142.3 301 106.8 301C71.3 301 35.7 301 17.8 301L0 301Z" fill="#fa5749"></path><path d="M0 269L17.8 264.2C35.7 259.3 71.3 249.7 106.8 250.2C142.3 250.7 177.7 261.3 213.2 269.3C248.7 277.3 284.3 282.7 320 279.3C355.7 276 391.3 264 426.8 261.8C462.3 259.7 497.7 267.3 533.2 272.5C568.7 277.7 604.3 280.3 640 283C675.7 285.7 711.3 288.3 746.8 285C782.3 281.7 817.7 272.3 853.2 270.5C888.7 268.7 924.3 274.3 942.2 277.2L960 280L960 301L942.2 301C924.3 301 888.7 301 853.2 301C817.7 301 782.3 301 746.8 301C711.3 301 675.7 301 640 301C604.3 301 568.7 301 533.2 301C497.7 301 462.3 301 426.8 301C391.3 301 355.7 301 320 301C284.3 301 248.7 301 213.2 301C177.7 301 142.3 301 106.8 301C71.3 301 35.7 301 17.8 301L0 301Z" fill="#ff6f31"></path><path d="M0 282L17.8 279.3C35.7 276.7 71.3 271.3 106.8 272.5C142.3 273.7 177.7 281.3 213.2 281.8C248.7 282.3 284.3 275.7 320 272.3C355.7 269 391.3 269 426.8 272.7C462.3 276.3 497.7 283.7 533.2 282.8C568.7 282 604.3 273 640 267.7C675.7 262.3 711.3 260.7 746.8 262.8C782.3 265 817.7 271 853.2 277.2C888.7 283.3 924.3 289.7 942.2 292.8L960 296L960 301L942.2 301C924.3 301 888.7 301 853.2 301C817.7 301 782.3 301 746.8 301C711.3 301 675.7 301 640 301C604.3 301 568.7 301 533.2 301C497.7 301 462.3 301 426.8 301C391.3 301 355.7 301 320 301C284.3 301 248.7 301 213.2 301C177.7 301 142.3 301 106.8 301C71.3 301 35.7 301 17.8 301L0 301Z" fill="#ff8906"></path></svg>